<?xml version="1.0" encoding="UTF-8"?>
<svg id="_レイヤー_1" data-name="レイヤー 1" xmlns="http://www.w3.org/2000/svg" viewBox="0 0 379.63 46.13">
    <defs>
        <style>
            .cls-1 {
            fill: #d1d5db;
            }
        </style>
    </defs>
    <path class="cls-1"
          d="m0,5.52h8.74l2.26,16.32,1.44,11.33h.19c.54-3.2,1.25-6.98,2.11-11.33l3.65-16.32h7.25l3.7,16.32c.29,1.41.69,3.55,1.2,6.43l.86,4.9h.24l1.34-11.33,2.35-16.32h8.11l-6.19,35.76h-10.8l-3.22-15.55c-.58-2.75-1.04-5.52-1.39-8.3h-.19l-.58,3.31c-.1.54-.22,1.33-.38,2.35-.16,1.02-.32,1.9-.48,2.64l-3.12,15.55H6.48L0,5.52Z"/>
    <path class="cls-1"
          d="m52.68,40.25c-2.1-1.14-3.75-2.79-4.97-4.97-1.22-2.18-1.82-4.74-1.82-7.68s.61-5.35,1.82-7.51c1.22-2.16,2.82-3.83,4.8-5.02,1.98-1.18,4.1-1.78,6.34-1.78,2.56,0,4.71.57,6.46,1.7,1.74,1.14,3.06,2.7,3.94,4.68.88,1.98,1.32,4.24,1.32,6.77,0,1.57-.13,2.8-.38,3.7h-16.03c.38,1.79,1.17,3.12,2.35,3.98,1.18.86,2.67,1.3,4.46,1.3,1.89,0,3.81-.58,5.76-1.73l2.83,5.14c-1.38.99-2.94,1.76-4.68,2.3-1.74.54-3.43.82-5.06.82-2.66,0-5.03-.57-7.13-1.7Zm10.63-15.72c0-1.44-.35-2.58-1.06-3.43s-1.79-1.27-3.26-1.27c-1.25,0-2.32.4-3.22,1.2-.9.8-1.49,1.97-1.78,3.5h9.31Z"/>
    <path class="cls-1"
          d="m86.81,41.04c-1.2-.61-2.33-1.5-3.38-2.69h-.24l-.67,2.93h-6.67V2.93h8.54v9.22l-.24,4.08c1.02-.93,2.14-1.65,3.36-2.16,1.22-.51,2.45-.77,3.7-.77,2.14,0,4.02.57,5.64,1.7,1.62,1.14,2.86,2.75,3.74,4.85.88,2.1,1.32,4.52,1.32,7.27,0,3.04-.54,5.68-1.61,7.92-1.07,2.24-2.49,3.95-4.25,5.14-1.76,1.18-3.63,1.78-5.62,1.78-1.22,0-2.42-.3-3.62-.91Zm5.02-7.97c.86-1.25,1.3-3.17,1.3-5.76,0-2.4-.36-4.18-1.08-5.33s-1.83-1.73-3.34-1.73c-.8,0-1.54.18-2.21.55s-1.38.95-2.11,1.75v10.8c1.15,1.06,2.5,1.58,4.03,1.58,1.41,0,2.54-.62,3.41-1.87Z"/>
    <path class="cls-1"
          d="m103.39,41.28l11.09-35.76h10.27l11.09,35.76h-9.02l-2.06-8.21h-10.56l-2.06,8.21h-8.74Zm12.43-14.83h7.3l-.77-3.02c-.38-1.38-.88-3.39-1.49-6.05l-1.34-5.42h-.19c-1.25,5.38-2.16,9.2-2.74,11.47l-.77,3.02Z"/>
    <path class="cls-1"
          d="m152.49,5.52c4.22,0,7.61.87,10.15,2.62s3.82,4.63,3.82,8.66c0,2.53-.54,4.66-1.63,6.38-1.09,1.73-2.59,3.04-4.51,3.94l7.97,14.16h-9.6l-6.58-12.58h-4.13v12.58h-8.59V5.52h13.1Zm-.67,16.42c2.05,0,3.61-.44,4.68-1.32,1.07-.88,1.61-2.15,1.61-3.82s-.52-2.78-1.56-3.46c-1.04-.67-2.62-1.01-4.73-1.01h-3.84v9.6h3.84Z"/>
    <path class="cls-1"
          d="m227.66,43.49h-19.87v2.3h-6.67v-24.29l-1.3,1.49c-.42-.8-1.09-1.86-2.02-3.19-.93-1.33-1.7-2.34-2.3-3.05.42-.42.82-.86,1.2-1.34h-1.97v6.1l3.02-.72.82,6.19-3.84,1.06v10.18c0,1.7-.16,3.02-.48,3.96-.32.94-.91,1.69-1.78,2.23-.83.54-1.85.91-3.05,1.1-1.2.19-2.73.29-4.58.29-.1-.93-.33-2.06-.7-3.38-.37-1.33-.78-2.47-1.22-3.43,1.15.06,2.58.1,4.27.1.32,0,.54-.07.67-.22.13-.14.19-.38.19-.7v-8.4l-4.8,1.25-1.39-6.77c1.7-.29,3.76-.7,6.19-1.25v-7.58h-5.14v-6.38h5.14V.29h6.67v8.74h3.12v4.94c1.34-1.86,2.54-3.98,3.6-6.36s1.94-4.87,2.64-7.46l6.67,1.68c-.67,2.4-1.49,4.74-2.45,7.01h4.08c1.21-3.2,2.09-6.03,2.64-8.5l7.39,1.44c-.7,1.76-1.73,4.11-3.07,7.06h7.34v6.1h-8.11v3.41h6.82v5.81h-6.82v3.55h6.82v5.81h-6.82v3.7h9.07v6.29Zm-15.5-25.15v-3.41h-4.37v3.41h4.37Zm0,9.36v-3.55h-4.37v3.55h4.37Zm-4.37,5.81v3.7h4.37v-3.7h-4.37Z"/>
    <path class="cls-1"
          d="m247.44,36.43c-4.03,1.38-9.42,3.15-16.18,5.33l-1.54-7.1c.96-.22,2.8-.72,5.52-1.49v-10.27h-4.51v-6.38h4.51v-7.34h-4.94V2.74h16.46v6.43h-4.9v7.34h4.03v6.38h-4.03v8.3l4.37-1.39,1.2,6.62Zm17.18,1.63h11.23v6.29h-30.91v-6.29h12.53v-3.46h-9.36v-6.24h9.36v-3.26h-9.22V2.16h25.58v22.94h-9.22v3.26h9.65v6.24h-9.65v3.46Zm-10.08-30.05v2.88h3.6v-2.88h-3.6Zm0,8.3v2.93h3.6v-2.93h-3.6Zm12.67-5.42v-2.88h-3.26v2.88h3.26Zm0,8.35v-2.93h-3.26v2.93h3.26Z"/>
    <path class="cls-1"
          d="m288.29,5.09h7.58c-.22,1.41-.5,2.75-.82,4.03-.32,1.28-.67,2.48-1.06,3.6h19.92v7.68h-7.58c-.51,4.64-1.66,8.53-3.43,11.66-1.78,3.14-3.75,5.59-5.93,7.37-2.18,1.78-4.22,3.16-6.14,4.15-1.92.99-3.5,1.67-4.73,2.04-1.23.37-1.86.54-1.9.5v-7.78c.06.03.71-.18,1.94-.62,1.23-.45,2.73-1.3,4.49-2.54,1.76-1.25,3.42-3.06,4.97-5.42,1.55-2.37,2.6-5.49,3.14-9.36h-8.02c-1.54,2.62-3.12,4.73-4.75,6.31s-2.98,2.72-4.06,3.41c-1.07.69-1.64,1.03-1.7,1.03v-8.78s.38-.26,1.06-.86c.67-.61,1.42-1.59,2.26-2.95s1.71-3.15,2.64-5.38c.93-2.22,1.63-4.92,2.11-8.09Zm16.37,2.5V0h3.65v7.58h-3.65Zm5.71,0V0h3.65v7.58h-3.65Z"/>
    <path class="cls-1" d="m319.39,28.9v-7.54h22.18v7.54h-22.18Z"/>
    <path class="cls-1"
          d="m355.39,6.72h7.73c-1.09,5.38-2.2,10.17-3.34,14.38s-2.15,7.64-3.05,10.3-1.49,4.32-1.78,4.99h15.26c-.45-2.21-1.1-4.66-1.97-7.37s-1.92-5.56-3.17-8.57h7.87c1.57,3.84,2.92,7.74,4.06,11.71,1.14,3.97,2.01,7.89,2.62,11.76h-33.41v-7.15c1.31-3.3,2.46-6.35,3.46-9.17.99-2.82,2-6.02,3.02-9.6,1.02-3.58,1.92-7.34,2.69-11.28Z"/>
</svg>