{
  "accessors": [
    {
      "bufferView": 2,
      "componentType": 5126,
      "count": 65532,
      "max": [
        74.41966247558594,
        256.3114929199219,
        15.635927200317383
      ],
      "min": [
        -80.48982238769531,
        225.84677124023438,
        -42.9642448425293
      ],
      "type": "VEC3"
    },
    {
      "bufferView": 2,
      "byteOffset": 786384,
      "componentType": 5126,
      "count": 65532,
      "max": [
        0.9999998211860657,
        1.0,
        0.9999772310256958
      ],
      "min": [
        -0.9999812841415405,
        -0.9999998807907104,
        -0.9999998807907104
      ],
      "type": "VEC3"
    },
    {
      "bufferView": 1,
      "componentType": 5126,
      "count": 65532,
      "max": [
        0.9889990091323853,
        0.9992560148239136
      ],
      "min": [
        0.0007440000190399587,
        0.15324200689792633
      ],
      "type": "VEC2"
    },
    {
      "bufferView": 0,
      "componentType": 5125,
      "count": 367812,
      "type": "SCALAR"
    },
    {
      "bufferView": 2,
      "byteOffset": 1572768,
      "componentType": 5126,
      "count": 13631,
      "max": [
        74.32186889648438,
        256.1980895996094,
        14.911288261413574
      ],
      "min": [
        -80.11332702636719,
        226.25624084472656,
        -42.84217071533203
      ],
      "type": "VEC3"
    },
    {
      "bufferView": 2,
      "byteOffset": 1736340,
      "componentType": 5126,
      "count": 13631,
      "max": [
        0.9991003274917603,
        1.0,
        0.9998122453689575
      ],
      "min": [
        -0.9999610781669617,
        -0.9999972581863403,
        -0.9995725154876709
      ],
      "type": "VEC3"
    },
    {
      "bufferView": 1,
      "byteOffset": 524256,
      "componentType": 5126,
      "count": 13631,
      "max": [
        0.9769009947776794,
        0.9827100038528442
      ],
      "min": [
        0.021105000749230385,
        0.15214799344539642
      ],
      "type": "VEC2"
    },
    {
      "bufferView": 0,
      "byteOffset": 1471248,
      "componentType": 5125,
      "count": 47940,
      "type": "SCALAR"
    }
  ],
  "asset": {
    "extras": {
      "author": "kitcad3d (https://sketchfab.com/kitCAD3d)",
      "license": "CC-BY-4.0 (http://creativecommons.org/licenses/by/4.0/)",
      "source": "https://sketchfab.com/3d-models/air-conditioner-remote-control-3d-scan-776d44b2465f4c2c856fbe74c21d5927",
      "title": "air conditioner remote control 3d scan"
    },
    "generator": "Sketchfab-13.28.0",
    "version": "2.0"
  },
  "bufferViews": [
    {
      "buffer": 0,
      "byteLength": 1663008,
      "name": "floatBufferViews",
      "target": 34963
    },
    {
      "buffer": 0,
      "byteLength": 633304,
      "byteOffset": 1663008,
      "byteStride": 8,
      "name": "floatBufferViews",
      "target": 34962
    },
    {
      "buffer": 0,
      "byteLength": 1899912,
      "byteOffset": 2296312,
      "byteStride": 12,
      "name": "floatBufferViews",
      "target": 34962
    }
  ],
  "buffers": [
    {
      "byteLength": 4196224,
      "uri": "scene.bin"
    }
  ],
  "images": [
    {
      "uri": "textures/material_0_baseColor.jpeg"
    }
  ],
  "materials": [
    {
      "doubleSided": true,
      "name": "material_0",
      "pbrMetallicRoughness": {
        "baseColorTexture": {
          "index": 0
        },
        "metallicFactor": 0.0,
        "roughnessFactor": 0.6
      }
    }
  ],
  "meshes": [
    {
      "name": "Object_0",
      "primitives": [
        {
          "attributes": {
            "NORMAL": 1,
            "POSITION": 0,
            "TEXCOORD_0": 2
          },
          "indices": 3,
          "material": 0,
          "mode": 4
        }
      ]
    },
    {
      "name": "Object_1",
      "primitives": [
        {
          "attributes": {
            "NORMAL": 5,
            "POSITION": 4,
            "TEXCOORD_0": 6
          },
          "indices": 7,
          "material": 0,
          "mode": 4
        }
      ]
    }
  ],
  "nodes": [
    {
      "children": [
        1
      ],
      "matrix": [
        -0.08123256266117096,
        -0.9922559261322021,
        0.09396495670080163,
        0.0,
        -0.02661926858127117,
        -0.09208303689956643,
        -0.9953954815864563,
        0.0,
        0.9963396191596985,
        -0.08335980027914047,
        -0.018932987004518526,
        0.0,
        0.0,
        0.0,
        0.0,
        1.0
      ],
      "name": "Sketchfab_model"
    },
    {
      "children": [
        2,
        3
      ],
      "name": "scan.obj.cleaner.materialmerger.gles"
    },
    {
      "mesh": 0,
      "name": "Object_2"
    },
    {
      "mesh": 1,
      "name": "Object_3"
    }
  ],
  "samplers": [
    {
      "magFilter": 9729,
      "minFilter": 9987,
      "wrapS": 10497,
      "wrapT": 10497
    }
  ],
  "scene": 0,
  "scenes": [
    {
      "name": "Sketchfab_Scene",
      "nodes": [
        0
      ]
    }
  ],
  "textures": [
    {
      "sampler": 0,
      "source": 0
    }
  ]
}
