{
  "accessors": [
    {
      "bufferView": 2,
      "componentType": 5126,
      "count": 17836,
      "max": [
        2.4394609928131104,
        3.396994113922119,
        5.015182018280029
      ],
      "min": [
        -1.938501000404358,
        -2.008671998977661,
        -0.04704099893569946
      ],
      "type": "VEC3"
    },
    {
      "bufferView": 2,
      "byteOffset": 214032,
      "componentType": 5126,
      "count": 17836,
      "max": [
        0.9999980926513672,
        0.9998323321342468,
        0.9994348287582397
      ],
      "min": [
        -1.0,
        -0.9999998807907104,
        -0.9998146891593933
      ],
      "type": "VEC3"
    },
    {
      "bufferView": 1,
      "componentType": 5126,
      "count": 17836,
      "max": [
        0.9950000047683716,
        0.9117680191993713
      ],
      "min": [
        0.004999999888241291,
        0.004999999888241291
      ],
      "type": "VEC2"
    },
    {
      "bufferView": 0,
      "componentType": 5125,
      "count": 92160,
      "type": "SCALAR"
    }
  ],
  "asset": {
    "extras": {
      "author": "CatAlex3D (https://sketchfab.com/CatAlex)",
      "license": "CC-BY-4.0 (http://creativecommons.org/licenses/by/4.0/)",
      "source": "https://sketchfab.com/3d-models/golden-earrings-ea7a893a9bb04f9ea50cf51f584f1470",
      "title": "Golden earrings"
    },
    "generator": "Sketchfab-12.67.0",
    "version": "2.0"
  },
  "bufferViews": [
    {
      "buffer": 0,
      "byteLength": 368640,
      "name": "floatBufferViews",
      "target": 34963
    },
    {
      "buffer": 0,
      "byteLength": 142688,
      "byteOffset": 368640,
      "byteStride": 8,
      "name": "floatBufferViews",
      "target": 34962
    },
    {
      "buffer": 0,
      "byteLength": 428064,
      "byteOffset": 511328,
      "byteStride": 12,
      "name": "floatBufferViews",
      "target": 34962
    }
  ],
  "buffers": [
    {
      "byteLength": 939392,
      "uri": "scene.bin"
    }
  ],
  "images": [
    {
      "uri": "textures/Gold_metallicRoughness.png"
    }
  ],
  "materials": [
    {
      "doubleSided": true,
      "name": "Gold",
      "pbrMetallicRoughness": {
        "baseColorFactor": [
          1.0,
          0.649221,
          0.075635,
          1.0
        ],
        "metallicRoughnessTexture": {
          "index": 0
        },
        "roughnessFactor": 0.6
      }
    }
  ],
  "meshes": [
    {
      "name": "Object_0",
      "primitives": [
        {
          "attributes": {
            "NORMAL": 1,
            "POSITION": 0,
            "TEXCOORD_0": 2
          },
          "indices": 3,
          "material": 0,
          "mode": 4
        }
      ]
    }
  ],
  "nodes": [
    {
      "children": [
        1
      ],
      "matrix": [
        0.023247361183166504,
        0.0,
        0.0,
        0.0,
        0.0,
        5.161951129465715e-18,
        -0.023247361183166504,
        0.0,
        0.0,
        0.023247361183166504,
        5.161951129465715e-18,
        0.0,
        0.0,
        0.0,
        0.0,
        1.0
      ],
      "name": "Sketchfab_model"
    },
    {
      "children": [
        2
      ],
      "name": "Earring.obj.cleaner.materialmerger.gles"
    },
    {
      "mesh": 0,
      "name": "Object_2"
    }
  ],
  "samplers": [
    {
      "magFilter": 9729,
      "minFilter": 9987,
      "wrapS": 10497,
      "wrapT": 10497
    }
  ],
  "scene": 0,
  "scenes": [
    {
      "name": "Sketchfab_Scene",
      "nodes": [
        0
      ]
    }
  ],
  "textures": [
    {
      "sampler": 0,
      "source": 0
    }
  ]
}
