{
  "accessors": [
    {
      "bufferView": 2,
      "componentType": 5126,
      "count": 65532,
      "max": [
        4.971990585327148,
        5.283032417297363,
        32.290130615234375
      ],
      "min": [
        -5.201251029968262,
        -4.419964790344238,
        0.0927276611328125
      ],
      "type": "VEC3"
    },
    {
      "bufferView": 2,
      "byteOffset": 786384,
      "componentType": 5126,
      "count": 65532,
      "max": [
        0.9999995827674866,
        1.0,
        1.0
      ],
      "min": [
        -0.9999979734420776,
        -1.0,
        -1.0
      ],
      "type": "VEC3"
    },
    {
      "bufferView": 1,
      "componentType": 5126,
      "count": 65532,
      "max": [
        0.9717860221862793,
        0.9877960085868835
      ],
      "min": [
        0.004999999888241291,
        0.004999999888241291
      ],
      "type": "VEC2"
    },
    {
      "bufferView": 1,
      "byteOffset": 524256,
      "componentType": 5126,
      "count": 65532,
      "max": [
        0.9717860221862793,
        0.9877960085868835
      ],
      "min": [
        0.004999999888241291,
        0.004999999888241291
      ],
      "type": "VEC2"
    },
    {
      "bufferView": 0,
      "componentType": 5125,
      "count": 335661,
      "type": "SCALAR"
    },
    {
      "bufferView": 2,
      "byteOffset": 1572768,
      "componentType": 5126,
      "count": 56225,
      "max": [
        4.971990585327148,
        5.222668647766113,
        24.395179748535156
      ],
      "min": [
        -5.20125150680542,
        -4.646636962890625,
        0.09272956848144531
      ],
      "type": "VEC3"
    },
    {
      "bufferView": 2,
      "byteOffset": 2247468,
      "componentType": 5126,
      "count": 56225,
      "max": [
        0.999993085861206,
        1.0,
        0.9999950528144836
      ],
      "min": [
        -0.9999799728393555,
        -1.0,
        -0.9998990297317505
      ],
      "type": "VEC3"
    },
    {
      "bufferView": 1,
      "byteOffset": 1048512,
      "componentType": 5126,
      "count": 56225,
      "max": [
        0.9950000047683716,
        0.98061603307724
      ],
      "min": [
        0.004999999888241291,
        0.004999999888241291
      ],
      "type": "VEC2"
    },
    {
      "bufferView": 1,
      "byteOffset": 1498312,
      "componentType": 5126,
      "count": 56225,
      "max": [
        0.9950000047683716,
        0.98061603307724
      ],
      "min": [
        0.004999999888241291,
        0.004999999888241291
      ],
      "type": "VEC2"
    },
    {
      "bufferView": 0,
      "byteOffset": 1342644,
      "componentType": 5125,
      "count": 302511,
      "type": "SCALAR"
    }
  ],
  "asset": {
    "extras": {
      "author": "orbytnz (https://sketchfab.com/orbytnz)",
      "license": "CC-BY-4.0 (http://creativecommons.org/licenses/by/4.0/)",
      "source": "https://sketchfab.com/3d-models/monarch-chrysalis-earring-3d-print-simulation-aa93745d57c44a98a654aecf5ba5a09e",
      "title": "Monarch Chrysalis earring ~ 3D print simulation"
    },
    "generator": "Sketchfab-12.68.0",
    "version": "2.0"
  },
  "bufferViews": [
    {
      "buffer": 0,
      "byteLength": 2552688,
      "name": "floatBufferViews",
      "target": 34963
    },
    {
      "buffer": 0,
      "byteLength": 1948112,
      "byteOffset": 2552688,
      "byteStride": 8,
      "name": "floatBufferViews",
      "target": 34962
    },
    {
      "buffer": 0,
      "byteLength": 2922168,
      "byteOffset": 4500800,
      "byteStride": 12,
      "name": "floatBufferViews",
      "target": 34962
    }
  ],
  "buffers": [
    {
      "byteLength": 7422968,
      "uri": "scene.bin"
    }
  ],
  "images": [
    {
      "uri": "textures/Object001_mtl_baseColor.jpeg"
    }
  ],
  "materials": [
    {
      "doubleSided": true,
      "name": "Object001_mtl",
      "pbrMetallicRoughness": {
        "baseColorTexture": {
          "index": 0
        },
        "metallicFactor": 0.0,
        "roughnessFactor": 0.2
      }
    }
  ],
  "meshes": [
    {
      "name": "Object001_Object001_mtl_0",
      "primitives": [
        {
          "attributes": {
            "NORMAL": 1,
            "POSITION": 0,
            "TEXCOORD_0": 2,
            "TEXCOORD_1": 3
          },
          "indices": 4,
          "material": 0,
          "mode": 4
        }
      ]
    },
    {
      "name": "Object001_Object001_mtl_0",
      "primitives": [
        {
          "attributes": {
            "NORMAL": 6,
            "POSITION": 5,
            "TEXCOORD_0": 7,
            "TEXCOORD_1": 8
          },
          "indices": 9,
          "material": 0,
          "mode": 4
        }
      ]
    }
  ],
  "nodes": [
    {
      "children": [
        1
      ],
      "matrix": [
        1.0,
        0.0,
        0.0,
        0.0,
        0.0,
        -0.07226958125829674,
        -0.9973851442337036,
        0.0,
        0.0,
        0.9973851442337036,
        -0.07226958125829674,
        0.0,
        0.0,
        0.10525317490100836,
        1.1519476175308228,
        1.0
      ],
      "name": "Sketchfab_model"
    },
    {
      "children": [
        2
      ],
      "matrix": [
        1.0,
        0.0,
        0.0,
        0.0,
        0.0,
        0.0,
        1.0,
        0.0,
        0.0,
        -1.0,
        0.0,
        0.0,
        0.0,
        0.0,
        0.0,
        1.0
      ],
      "name": "Monarch Butterfly Chrysalis.fbx"
    },
    {
      "children": [
        3
      ],
      "name": "RootNode"
    },
    {
      "children": [
        4
      ],
      "matrix": [
        1.0,
        0.0,
        0.0,
        0.0,
        0.0,
        2.220446049250313e-16,
        -1.0,
        0.0,
        0.0,
        1.0,
        2.220446049250313e-16,
        0.0,
        -0.11463046073913574,
        0.0927276611328125,
        -0.31819772720336914,
        1.0
      ],
      "name": "Object001"
    },
    {
      "children": [
        5,
        6
      ],
      "matrix": [
        1.0,
        0.0,
        -0.0,
        0.0,
        0.0,
        1.0,
        0.0,
        0.0,
        0.0,
        0.0,
        1.0,
        0.0,
        0.11463046073913574,
        -0.31819772720336914,
        -0.0927276611328125,
        1.0
      ],
      "name": "Object_4"
    },
    {
      "mesh": 0,
      "name": "Object001_Object001_mtl_0"
    },
    {
      "mesh": 1,
      "name": "Object001_Object001_mtl_0"
    }
  ],
  "samplers": [
    {
      "magFilter": 9729,
      "minFilter": 9987,
      "wrapS": 10497,
      "wrapT": 10497
    }
  ],
  "scene": 0,
  "scenes": [
    {
      "name": "Sketchfab_Scene",
      "nodes": [
        0
      ]
    }
  ],
  "textures": [
    {
      "sampler": 0,
      "source": 0
    }
  ]
}
