<?xml version="1.0" encoding="UTF-8"?>
<svg id="_レイヤー_4" data-name="レイヤー 4" xmlns="http://www.w3.org/2000/svg" viewBox="0 0 400 400.56">
  <defs>
    <style>
      .cls-1 {
        fill: silver;
      }
    </style>
  </defs>
  <path class="cls-1" d="m199.66,400c-11.1,0-20.48-3.84-28.15-11.51-7.67-7.67-11.51-17.05-11.51-28.15h79.31c0,11.1-3.84,20.48-11.51,28.15-7.67,7.67-17.05,11.51-28.15,11.51Zm-79.31-70.01v-29.38h158.63v29.38H120.35Zm2.45-59.24c-21.54-14.04-38.6-31.58-51.16-52.63-12.57-21.05-18.85-44.8-18.85-71.24,0-39.82,14.52-74.26,43.57-103.3C125.41,14.52,159.84,0,199.66,0s74.26,14.52,103.3,43.57c29.05,29.05,43.57,63.48,43.57,103.3,0,26.44-6.2,50.18-18.6,71.24-12.4,21.05-29.54,38.6-51.41,52.63H122.8Zm10.77-29.38h132.68c15.67-10.44,28.07-23.99,37.21-40.64,9.14-16.65,13.71-34.6,13.71-53.86,0-32.31-11.51-59.98-34.52-82.99-23.01-23.01-50.67-34.52-82.99-34.52s-59.98,11.51-82.99,34.52c-23.01,23.01-34.52,50.67-34.52,82.99,0,19.26,4.57,37.21,13.71,53.86,9.14,16.65,21.71,30.19,37.7,40.64Z"/>
</svg>