<?xml version="1.0" encoding="UTF-8"?>
<svg id="_レイヤー_1" data-name="レイヤー 1" xmlns="http://www.w3.org/2000/svg" viewBox="0 0 99.73 99.73">
  <defs>
    <style>
      .cls-1 {
        fill: silver;
      }
    </style>
  </defs>
  <path class="cls-1" d="m49.78,99.73c-2.77,0-5.11-.96-7.02-2.87s-2.87-4.25-2.87-7.02h19.77c0,2.77-.96,5.11-2.87,7.02s-4.25,2.87-7.02,2.87Zm-19.77-17.46v-7.32h39.55v7.32H30.01Zm.61-14.77c-5.37-3.5-9.62-7.87-12.76-13.12s-4.7-11.17-4.7-17.76c0-9.93,3.62-18.51,10.86-25.76C31.27,3.62,39.85,0,49.78,0s18.51,3.62,25.76,10.86c7.24,7.24,10.86,15.83,10.86,25.76,0,6.59-1.55,12.51-4.64,17.76s-7.36,9.62-12.82,13.12H30.62Zm2.69-7.32h33.08c3.91-2.6,7-5.98,9.28-10.13s3.42-8.63,3.42-13.43c0-8.06-2.87-14.95-8.61-20.69s-12.63-8.61-20.69-8.61-14.95,2.87-20.69,8.61-8.61,12.63-8.61,20.69c0,4.8,1.14,9.28,3.42,13.43,2.28,4.15,5.41,7.53,9.4,10.13Z"/>
</svg>