<?xml version="1.0" encoding="UTF-8"?>
<svg id="_レイヤー_4" data-name="レイヤー 4" xmlns="http://www.w3.org/2000/svg" viewBox="0 0 400 400.56">
  <defs>
    <style>
      .cls-1 {
        fill: #ed1643;
      }
    </style>
  </defs>
  <path class="cls-1" d="m199.67,400c-11.08,0-20.46-3.83-28.12-11.49s-11.49-17.03-11.49-28.12h79.22c0,11.08-3.83,20.46-11.49,28.12-7.66,7.66-17.03,11.49-28.12,11.49Zm-79.22-69.92v-29.34h158.43v29.34H120.46Zm2.44-59.17c-21.52-14.02-38.55-31.54-51.1-52.57-12.55-21.03-18.83-44.74-18.83-71.15,0-39.77,14.51-74.16,43.52-103.18C125.51,15.01,159.9.5,199.67.5s74.16,14.51,103.18,43.52c29.01,29.01,43.52,63.4,43.52,103.18,0,26.41-6.19,50.12-18.58,71.15-12.39,21.03-29.5,38.55-51.34,52.57H122.9Z"/>
</svg>