<?xml version="1.0" encoding="UTF-8"?>
<svg id="_レイヤー_1" data-name="レイヤー 1" xmlns="http://www.w3.org/2000/svg" viewBox="0 0 380.74 399.08">
  <defs>
    <style>
      .cls-1 {
        fill: #c0c0c0;
      }
    </style>
  </defs>
  <path class="cls-1" d="m59.86,399.08v-85.8c-18.96-17.29-33.67-37.5-44.15-60.61S0,205.19,0,179.59c0-49.89,17.46-92.29,52.38-127.21C87.3,17.46,129.7,0,179.59,0c41.57,0,78.4,12.22,110.5,36.67,32.09,24.44,52.96,56.29,62.61,95.53l27.44,108.75c1.33,4.66.5,8.9-2.49,12.72s-6.98,5.74-11.97,5.74h-46.39v69.84c0,8.23-2.93,15.28-8.79,21.14s-12.91,8.79-21.14,8.79h-49.89v39.91h-29.93v-69.84h79.82v-99.77h56.87l-22.45-89.79c-7.98-32.26-25.44-58.61-52.38-79.07-26.94-20.45-57.53-30.68-91.79-30.68-41.57,0-76.91,14.38-106.01,43.15-29.1,28.77-43.65,63.86-43.65,105.28,0,21.42,4.38,41.77,13.13,61.06,8.75,19.28,21.17,36.42,37.25,51.42l9.48,8.98v99.27h-29.93Zm119.72-119.72c5.65,0,10.39-1.91,14.22-5.74,3.82-3.82,5.74-8.56,5.74-14.22s-1.91-10.39-5.74-14.22c-3.82-3.82-8.56-5.74-14.22-5.74s-10.39,1.91-14.22,5.74-5.74,8.56-5.74,14.22,1.91,10.39,5.74,14.22,8.56,5.74,14.22,5.74Zm-14.97-63.85h30.43c0-8.31,1.08-15.05,3.24-20.2,2.16-5.15,6.57-11.39,13.22-18.71,5.99-6.65,11.81-13.39,17.46-20.2,5.65-6.82,8.48-15.71,8.48-26.69,0-13.97-5.4-25.77-16.21-35.42s-24.19-14.47-40.16-14.47c-13.3,0-25.36,3.82-36.17,11.47-10.81,7.65-18.37,17.63-22.7,29.93l27.44,11.47c2.33-7.32,6.4-13.22,12.22-17.71s12.22-6.73,19.21-6.73,13.39,2,18.21,5.99c4.82,3.99,7.23,9.15,7.23,15.46,0,6.98-2.08,13.22-6.24,18.71-4.16,5.49-9.06,11.06-14.72,16.71-6.65,6.98-11.81,13.97-15.46,20.95s-5.49,16.79-5.49,29.43Z"/>
</svg>