<?xml version="1.0" encoding="UTF-8"?>
<svg id="people" xmlns="http://www.w3.org/2000/svg" viewBox="0 0 382.15 400.56">
  <defs>
    <style>
      .cls-1 {
        fill: #ed1643;
      }
    </style>
  </defs>
  <path id="fill-2" data-name="fill" class="cls-1" d="m60.08,400.56v-86.12c-19.03-17.36-33.8-37.64-44.31-60.83C5.26,230.41,0,205.95,0,180.25c0-50.07,17.52-92.63,52.57-127.68C87.62,17.52,130.18,0,180.25,0c41.72,0,78.69,12.27,110.9,36.8,32.21,24.53,53.16,56.5,62.84,95.88l27.54,109.15c1.34,4.67.5,8.93-2.5,12.77-3,3.84-7.01,5.76-12.02,5.76h-46.57v70.1c0,8.35-2.92,15.44-8.76,21.28-5.84,5.84-12.93,8.76-21.28,8.76h-50.07v40.06H60.08Zm120.17-120.17c5.67,0,10.43-1.92,14.27-5.76,3.84-3.84,5.76-8.6,5.76-14.27s-1.92-10.43-5.76-14.27c-3.84-3.84-8.6-5.76-14.27-5.76s-10.43,1.92-14.27,5.76c-3.84,3.84-5.76,8.6-5.76,14.27s1.92,10.43,5.76,14.27,8.6,5.76,14.27,5.76Zm-15.02-64.09h30.54c0-8.35,1.08-15.1,3.25-20.28s6.59-11.43,13.27-18.78c6.01-6.68,11.85-13.44,17.52-20.28,5.67-6.84,8.51-15.77,8.51-26.79,0-14.02-5.42-25.87-16.27-35.55-10.85-9.68-24.28-14.52-40.31-14.52-13.35,0-25.45,3.84-36.3,11.52-10.85,7.68-18.44,17.69-22.78,30.04l27.54,11.52c2.34-7.34,6.43-13.27,12.27-17.77s12.27-6.76,19.28-6.76,13.44,2,18.28,6.01c4.84,4.01,7.26,9.18,7.26,15.52,0,7.01-2.09,13.27-6.26,18.78-4.17,5.51-9.1,11.1-14.77,16.77-6.68,7.01-11.85,14.02-15.52,21.03-3.67,7.01-5.51,16.86-5.51,29.54Z"/>
</svg>