<?xml version="1.0" encoding="UTF-8"?>
<svg id="_レイヤー_1" data-name="レイヤー 1" xmlns="http://www.w3.org/2000/svg" viewBox="0 0 99.73 99.73">
  <defs>
    <style>
      .cls-1 {
        fill: #ed1643;
      }
    </style>
  </defs>
  <path class="cls-1" d="m49.78,99.73c-2.76,0-5.1-.95-7.01-2.86s-2.86-4.25-2.86-7.01h19.75c0,2.76-.95,5.1-2.86,7.01s-4.25,2.86-7.01,2.86Zm-19.75-17.43v-7.31h39.5v7.31H30.03Zm.61-14.75c-5.36-3.49-9.61-7.86-12.74-13.11s-4.69-11.16-4.69-17.74c0-9.92,3.62-18.49,10.85-25.72C31.29,3.74,39.87.13,49.78.13s18.49,3.62,25.72,10.85c7.23,7.23,10.85,15.81,10.85,25.72,0,6.58-1.54,12.5-4.63,17.74s-7.36,9.61-12.8,13.11H30.64Z"/>
</svg>