<?xml version="1.0" encoding="UTF-8"?>
<svg id="_レイヤー_1" data-name=" レイヤー 1" xmlns="http://www.w3.org/2000/svg" viewBox="0 0 98.12 98.12">
  <defs>
    <style>
      .cls-1 {
        fill: #f0f0f0;
      }
    </style>
  </defs>
  <path class="cls-1" d="m46.27,34.25h41.99c-2.27-6-5.88-11.3-10.83-15.88-4.95-4.58-10.59-7.73-16.92-9.43l-14.24,25.31Zm-11.32,10.1L56.13,7.97c-.97-.08-2.07-.14-3.29-.18s-2.35-.06-3.41-.06c-5.84,0-11.2,1.05-16.06,3.16-4.87,2.11-9.25,5.03-13.14,8.76l14.73,24.71Zm-25.68,15.33h28.84L17.43,22.81c-3.08,3.65-5.42,7.73-7,12.23s-2.37,9.19-2.37,14.06c0,1.7.08,3.49.24,5.35s.49,3.61.97,5.23Zm29.21,29.45l14.6-25.19H10.73c2.27,6,5.86,11.3,10.77,15.88,4.91,4.58,10.57,7.69,16.98,9.31Zm10.95,1.34c5.84,0,11.22-1.05,16.13-3.16s9.27-5.03,13.08-8.76l-14.6-24.71-21.3,36.39c1.05.08,2.17.14,3.35.18s2.29.06,3.35.06Zm32.13-15.09c2.76-3.41,4.99-7.42,6.69-12.05s2.56-9.37,2.56-14.24c0-1.78-.08-3.59-.24-5.42s-.45-3.59-.85-5.29h-28.84l20.69,37Zm-32.13,22.39c-6.65,0-12.94-1.28-18.86-3.83s-11.09-6.04-15.52-10.47-7.91-9.59-10.47-15.52S.75,55.75.75,49.1s1.28-13.04,3.83-18.92,6.04-11.03,10.47-15.46,9.59-7.91,15.52-10.47S42.78.42,49.44.42s13.04,1.28,18.92,3.83,11.03,6.04,15.46,10.47,7.91,9.57,10.47,15.46,3.83,12.19,3.83,18.92-1.28,12.94-3.83,18.86-6.04,11.09-10.47,15.52-9.57,7.91-15.46,10.47-12.19,3.83-18.92,3.83Z"/>
</svg>