<?xml version="1.0" encoding="utf-8"?>
<!-- Generator: Adobe Illustrator 27.5.0, SVG Export Plug-In . SVG Version: 6.00 Build 0)  -->
<svg version="1.1" id="_レイヤー_1" xmlns="http://www.w3.org/2000/svg" xmlns:xlink="http://www.w3.org/1999/xlink" x="0px"
	 y="0px" viewBox="0 0 99.7 99.7" style="enable-background:new 0 0 99.7 99.7;" xml:space="preserve">
<style type="text/css">
	.st0{fill:#FFFFFF;}
	.st1{display:none;fill:#FFFFFF;}
	.st2{display:none;}
</style>
<path class="st0" d="M3.1,62.7c-0.8,0-1.4-0.3-1.9-0.8S0.4,60.8,0.4,60s0.3-1.4,0.8-1.9s1.2-0.8,1.9-0.8s1.4,0.3,1.9,0.8
	s0.8,1.2,0.8,1.9s-0.3,1.4-0.8,1.9S3.9,62.7,3.1,62.7z M3.1,42.6c-0.8,0-1.4-0.3-1.9-0.8s-0.8-1.2-0.8-1.9s0.3-1.4,0.8-1.9
	s1.2-0.8,1.9-0.8s1.4,0.3,1.9,0.8s0.8,1.2,0.8,1.9s-0.3,1.4-0.8,1.9S3.9,42.6,3.1,42.6z M18.5,85.8c-1.4,0-2.6-0.5-3.5-1.4
	s-1.4-2.1-1.4-3.5s0.5-2.6,1.4-3.5s2.1-1.4,3.5-1.4s2.5,0.5,3.5,1.4s1.4,2.1,1.4,3.5S23,83.5,22,84.4S19.9,85.8,18.5,85.8z
	 M18.5,64.9c-1.4,0-2.6-0.5-3.5-1.4s-1.4-2.1-1.4-3.5s0.5-2.5,1.4-3.5s2.1-1.4,3.5-1.4s2.5,0.5,3.5,1.4s1.4,2.1,1.4,3.5
	S23,62.5,22,63.5C21.1,64.4,19.9,64.9,18.5,64.9z M18.5,44.8c-1.4,0-2.6-0.5-3.5-1.4s-1.4-2.1-1.4-3.5s0.5-2.5,1.4-3.5
	s2.1-1.4,3.5-1.4s2.5,0.5,3.5,1.4s1.4,2.1,1.4,3.5S23,42.4,22,43.3S19.9,44.8,18.5,44.8z M18.5,23.8c-1.4,0-2.6-0.5-3.5-1.4
	s-1.4-2.1-1.4-3.5s0.5-2.5,1.4-3.5c0.9-0.9,2.1-1.4,3.5-1.4s2.5,0.5,3.5,1.4c1,0.9,1.4,2.1,1.4,3.5S23,21.5,22,22.4
	S19.9,23.8,18.5,23.8z M39.4,67c-1.9,0-3.6-0.7-4.9-2s-2-3-2-4.9s0.7-3.6,2-4.9s3-2,4.9-2s3.6,0.7,4.9,2s2,3,2,4.9s-0.7,3.6-2,4.9
	S41.4,67,39.4,67z M39.4,46.8c-1.9,0-3.6-0.7-4.9-2s-2-3-2-4.9s0.7-3.6,2-4.9s3-2,4.9-2s3.6,0.7,4.9,2s2,3,2,4.9s-0.7,3.6-2,4.9
	S41.4,46.8,39.4,46.8z M39.4,85.8c-1.4,0-2.5-0.5-3.5-1.4s-1.4-2.1-1.4-3.5s0.5-2.6,1.4-3.5S38,76,39.4,76s2.5,0.5,3.5,1.4
	s1.4,2.1,1.4,3.5s-0.5,2.6-1.4,3.5S40.8,85.8,39.4,85.8z M39.4,23.8c-1.4,0-2.5-0.5-3.5-1.4s-1.4-2.1-1.4-3.5s0.5-2.5,1.4-3.5
	c0.9-0.9,2.1-1.4,3.5-1.4s2.5,0.5,3.5,1.4c1,0.9,1.4,2.1,1.4,3.5s-0.5,2.5-1.4,3.5S40.8,23.8,39.4,23.8z M39.4,99
	c-0.8,0-1.4-0.3-1.9-0.8s-0.8-1.2-0.8-1.9s0.3-1.4,0.8-1.9s1.2-0.8,1.9-0.8s1.4,0.3,1.9,0.8s0.8,1.2,0.8,1.9s-0.3,1.4-0.8,1.9
	S40.2,99,39.4,99z M39.4,6.3c-0.8,0-1.4-0.3-1.9-0.8s-0.8-1.2-0.8-1.9s0.3-1.4,0.8-1.9s1.2-0.8,1.9-0.8s1.4,0.3,1.9,0.8
	s0.8,1.2,0.8,1.9S41.9,5,41.4,5.5S40.2,6.3,39.4,6.3z M59.6,67c-1.9,0-3.6-0.7-4.9-2s-2-3-2-4.9s0.7-3.6,2-4.9c1.4-1.4,3-2,4.9-2
	s3.6,0.7,4.9,2s2,3,2,4.9s-0.7,3.6-2,4.9S61.5,67,59.6,67z M59.6,46.8c-1.9,0-3.6-0.7-4.9-2s-2-3-2-4.9s0.7-3.6,2-4.9s3-2,4.9-2
	s3.6,0.7,4.9,2s2,3,2,4.9s-0.7,3.6-2,4.9S61.5,46.8,59.6,46.8z M59.6,85.8c-1.4,0-2.5-0.5-3.5-1.4s-1.4-2.1-1.4-3.5s0.5-2.6,1.4-3.5
	s2.1-1.4,3.5-1.4s2.5,0.5,3.5,1.4s1.4,2.1,1.4,3.5s-0.5,2.6-1.4,3.5S61,85.8,59.6,85.8z M59.6,23.8c-1.4,0-2.5-0.5-3.5-1.4
	s-1.4-2.1-1.4-3.5s0.5-2.5,1.4-3.5c0.9-0.9,2.1-1.4,3.5-1.4s2.5,0.5,3.5,1.4c1,0.9,1.4,2.1,1.4,3.5s-0.5,2.5-1.4,3.5
	S61,23.8,59.6,23.8z M59.6,6.3c-0.8,0-1.4-0.3-1.9-0.8s-0.8-1.2-0.8-1.9s0.3-1.4,0.8-1.9s1.2-0.8,1.9-0.8s1.4,0.3,1.9,0.8
	s0.8,1.2,0.8,1.9S62,5,61.5,5.5S60.3,6.3,59.6,6.3z M60.3,99c-0.8,0-1.4-0.3-1.9-0.8s-0.8-1.2-0.8-1.9s0.3-1.4,0.8-1.9
	s1.2-0.8,1.9-0.8s1.4,0.3,1.9,0.8s0.8,1.2,0.8,1.9s-0.3,1.4-0.8,1.9S61.1,99,60.3,99z M80.5,85.8c-1.4,0-2.6-0.5-3.5-1.4
	s-1.4-2.1-1.4-3.5s0.5-2.6,1.4-3.5s2.1-1.4,3.5-1.4s2.6,0.5,3.5,1.4s1.4,2.1,1.4,3.5s-0.5,2.6-1.4,3.5S81.9,85.8,80.5,85.8z
	 M80.5,64.9c-1.4,0-2.6-0.5-3.5-1.4s-1.4-2.1-1.4-3.5s0.5-2.5,1.4-3.5s2.1-1.4,3.5-1.4s2.6,0.5,3.5,1.4s1.4,2.1,1.4,3.5
	s-0.5,2.5-1.4,3.5C83,64.4,81.9,64.9,80.5,64.9z M80.5,44.8c-1.4,0-2.6-0.5-3.5-1.4s-1.4-2.1-1.4-3.5s0.5-2.5,1.4-3.5
	s2.1-1.4,3.5-1.4s2.6,0.5,3.5,1.4s1.4,2.1,1.4,3.5s-0.5,2.5-1.4,3.5S81.9,44.8,80.5,44.8z M80.5,23.8c-1.4,0-2.6-0.5-3.5-1.4
	s-1.4-2.1-1.4-3.5s0.5-2.5,1.4-3.5c0.9-0.9,2.1-1.4,3.5-1.4s2.6,0.5,3.5,1.4c0.9,0.9,1.4,2.1,1.4,3.5s-0.5,2.5-1.4,3.5
	S81.9,23.8,80.5,23.8z M95.8,62.7c-0.8,0-1.4-0.3-1.9-0.8s-0.8-1.2-0.8-1.9s0.3-1.4,0.8-1.9s1.2-0.8,1.9-0.8s1.4,0.3,1.9,0.8
	s0.8,1.2,0.8,1.9s-0.3,1.4-0.8,1.9S96.6,62.7,95.8,62.7z M95.8,42.6c-0.8,0-1.4-0.3-1.9-0.8s-0.8-1.2-0.8-1.9s0.3-1.4,0.8-1.9
	s1.2-0.8,1.9-0.8s1.4,0.3,1.9,0.8s0.8,1.2,0.8,1.9s-0.3,1.4-0.8,1.9S96.6,42.6,95.8,42.6z"/>
<path class="st1" d="M46.6,34.7h43c-2.3-6.2-6-11.6-11.1-16.3s-10.8-7.9-17.3-9.7L46.6,34.7z M35,45L56.7,7.7
	c-1-0.1-2.1-0.1-3.4-0.2c-1.2,0-2.4-0.1-3.5-0.1c-6,0-11.5,1.1-16.5,3.2c-5,2.2-9.5,5.2-13.5,9L35,45z M8.7,60.7h29.5L17.1,22.9
	c-3.2,3.7-5.5,7.9-7.2,12.5s-2.4,9.4-2.4,14.4c0,1.7,0.1,3.6,0.2,5.5C7.9,57.3,8.2,59,8.7,60.7z M38.6,90.9l15-25.8H10.2
	c2.3,6.2,6,11.6,11,16.3S32.1,89.2,38.6,90.9z M49.9,92.3c6,0,11.5-1.1,16.5-3.2c5-2.2,9.5-5.2,13.4-9l-15-25.3L43,92
	c1.1,0.1,2.2,0.1,3.4,0.2C47.6,92.2,48.8,92.3,49.9,92.3z M82.8,76.8c2.8-3.5,5.1-7.6,6.9-12.3s2.6-9.6,2.6-14.6
	c0-1.8-0.1-3.7-0.2-5.5s-0.5-3.7-0.9-5.4H61.6L82.8,76.8z M49.9,99.7c-6.8,0-13.3-1.3-19.3-3.9s-11.4-6.2-15.9-10.7
	S6.5,75.3,3.9,69.2S0,56.7,0,49.9C0,43,1.3,36.5,3.9,30.5s6.2-11.3,10.7-15.8s9.8-8.1,15.9-10.7S43.1,0,49.9,0
	c6.9,0,13.4,1.3,19.4,3.9s11.3,6.2,15.8,10.7s8.1,9.8,10.7,15.8s3.9,12.5,3.9,19.4c0,6.8-1.3,13.3-3.9,19.3s-6.2,11.4-10.7,15.9
	s-9.8,8.1-15.8,10.7S56.8,99.7,49.9,99.7z"/>
<path class="st2" d="M45.5,32.4L63,1.9C70.4,3.8,77.2,7.5,83.2,13S93.7,25,96.5,32.4H45.5z M32.4,45.1L15,14.6
	C19.7,10,25,6.4,31,3.9s12.1-3.7,18.5-3.7c1.4,0,2.9,0.1,4.6,0.2s2.9,0.3,3.8,0.4L32.4,45.1z M1.6,62.6c-0.6-2-1-4-1.2-6.1
	C0.1,54.5,0,52.4,0,50.3c0-6,1-11.7,2.9-17.1s4.8-10.3,8.5-14.8l25.3,44.3H1.6z M36.5,98C29,96,22.4,92.2,16.5,86.8
	C10.6,81.3,6.2,74.9,3.2,67.6h50.9L36.5,98z M50.9,99.9c-1.7,0-3.3-0.1-5-0.2s-3.1-0.3-4.2-0.5l25.6-44l17.6,30.4
	c-4.7,4.7-10.1,8.2-16,10.7S56.9,99.9,50.9,99.9z M88.4,81.6L62.7,37.3h35.4c0.6,2.2,1,4.3,1.2,6.5c0.2,2.2,0.4,4.2,0.4,6.2
	c0,5.7-1,11.3-2.9,16.7S92,77.1,88.4,81.6z"/>
</svg>
