<?xml version="1.0" encoding="UTF-8"?>
<svg id="_レイヤー_1" data-name=" レイヤー 1" xmlns="http://www.w3.org/2000/svg" viewBox="0 0 99.73 99.92">
  <defs>
    <style>
      .cls-1 {
        fill: #fff;
      }
    </style>
  </defs>
  <path class="cls-1" d="m45.5,32.35L62.95,1.93c7.48,1.91,14.23,5.61,20.26,11.09s10.45,11.93,13.28,19.32h-50.99Zm-13.09,12.72L14.96,14.65c4.74-4.65,10.08-8.23,16.02-10.72S43.09.19,49.49.19c1.41,0,2.93.06,4.55.19s2.89.27,3.8.44l-25.43,44.26ZM1.62,62.64c-.58-1.99-1-4.03-1.25-6.11s-.37-4.16-.37-6.23c0-5.98.98-11.68,2.93-17.08s4.8-10.35,8.54-14.83l25.31,44.26H1.62Zm34.91,35.4c-7.48-2.08-14.17-5.84-20.07-11.28-5.9-5.44-10.31-11.82-13.21-19.14h50.86l-17.58,30.42Zm14.34,1.87c-1.66,0-3.35-.08-5.05-.25s-3.1-.33-4.18-.5l25.56-44.01,17.58,30.42c-4.74,4.65-10.06,8.21-15.96,10.66-5.9,2.45-11.88,3.68-17.95,3.68Zm37.52-18.33l-25.68-44.26h35.4c.58,2.16,1,4.32,1.25,6.48.25,2.16.37,4.24.37,6.23,0,5.73-.98,11.3-2.93,16.7s-4.76,10.35-8.41,14.83Z"/>
</svg>