<?xml version="1.0" encoding="UTF-8"?>
<svg id="_レイヤー_7" data-name="レイヤー 7" xmlns="http://www.w3.org/2000/svg" viewBox="0 0 400.66 400.56">
  <defs>
    <style>
      .cls-1 {
        fill: #fff;
      }
    </style>
  </defs>
  <path class="cls-1" d="m11.72,252.11c-3.16,0-5.79-1.05-7.89-3.16s-3.16-4.74-3.16-7.89,1.05-5.79,3.16-7.89c2.11-2.11,4.74-3.16,7.89-3.16s5.79,1.05,7.89,3.16,3.16,4.74,3.16,7.89-1.05,5.79-3.16,7.89-4.74,3.16-7.89,3.16Zm0-82.11c-3.16,0-5.79-1.05-7.89-3.16s-3.16-4.74-3.16-7.89,1.05-5.79,3.16-7.89,4.74-3.16,7.89-3.16,5.79,1.05,7.89,3.16,3.16,4.74,3.16,7.89-1.05,5.79-3.16,7.89-4.74,3.16-7.89,3.16Zm62.69,176.32c-5.65,0-10.41-1.91-14.27-5.73-3.86-3.82-5.79-8.56-5.79-14.21s1.91-10.41,5.73-14.27c3.82-3.86,8.56-5.79,14.21-5.79s10.41,1.91,14.27,5.73c3.86,3.82,5.79,8.56,5.79,14.21s-1.91,10.41-5.73,14.27c-3.82,3.86-8.56,5.79-14.21,5.79Zm0-85.26c-5.65,0-10.41-1.91-14.27-5.73-3.86-3.82-5.79-8.56-5.79-14.21s1.91-10.41,5.73-14.27c3.82-3.86,8.56-5.79,14.21-5.79s10.41,1.91,14.27,5.73c3.86,3.82,5.79,8.56,5.79,14.21s-1.91,10.41-5.73,14.27c-3.82,3.86-8.56,5.79-14.21,5.79Zm0-82.11c-5.65,0-10.41-1.91-14.27-5.73-3.86-3.82-5.79-8.56-5.79-14.21s1.91-10.41,5.73-14.27c3.82-3.86,8.56-5.79,14.21-5.79s10.41,1.91,14.27,5.73c3.86,3.82,5.79,8.56,5.79,14.21s-1.91,10.41-5.73,14.27c-3.82,3.86-8.56,5.79-14.21,5.79Zm0-85.26c-5.65,0-10.41-1.91-14.27-5.73-3.86-3.82-5.79-8.56-5.79-14.21s1.91-10.41,5.73-14.27c3.82-3.86,8.56-5.79,14.21-5.79s10.41,1.91,14.27,5.73c3.86,3.82,5.79,8.56,5.79,14.21s-1.91,10.41-5.73,14.27c-3.82,3.86-8.56,5.79-14.21,5.79Zm85.21,175.79c-7.89,0-14.61-2.76-20.13-8.29-5.53-5.53-8.29-12.24-8.29-20.13s2.76-14.61,8.29-20.13,12.24-8.29,20.13-8.29,14.61,2.76,20.13,8.29,8.29,12.24,8.29,20.13-2.76,14.61-8.29,20.13c-5.53,5.53-12.24,8.29-20.13,8.29Zm0-82.11c-7.89,0-14.61-2.76-20.13-8.29s-8.29-12.24-8.29-20.13,2.76-14.61,8.29-20.13,12.24-8.29,20.13-8.29,14.61,2.76,20.13,8.29c5.53,5.53,8.29,12.24,8.29,20.13s-2.76,14.61-8.29,20.13c-5.53,5.53-12.24,8.29-20.13,8.29Zm.06,158.95c-5.65,0-10.41-1.91-14.27-5.73-3.86-3.82-5.79-8.56-5.79-14.21s1.91-10.41,5.73-14.27c3.82-3.86,8.56-5.79,14.21-5.79s10.41,1.91,14.27,5.73c3.86,3.82,5.79,8.56,5.79,14.21s-1.91,10.41-5.73,14.27c-3.82,3.86-8.56,5.79-14.21,5.79Zm0-252.63c-5.65,0-10.41-1.91-14.27-5.73-3.86-3.82-5.79-8.56-5.79-14.21s1.91-10.41,5.73-14.27c3.82-3.86,8.56-5.79,14.21-5.79s10.41,1.91,14.27,5.73c3.86,3.82,5.79,8.56,5.79,14.21s-1.91,10.41-5.73,14.27c-3.82,3.86-8.56,5.79-14.21,5.79Zm-.06,306.32c-3.16,0-5.79-1.05-7.89-3.16s-3.16-4.74-3.16-7.89,1.05-5.79,3.16-7.89,4.74-3.16,7.89-3.16,5.79,1.05,7.89,3.16,3.16,4.74,3.16,7.89-1.05,5.79-3.16,7.89-4.74,3.16-7.89,3.16Zm0-377.89c-3.16,0-5.79-1.05-7.89-3.16s-3.16-4.74-3.16-7.89,1.05-5.79,3.16-7.89,4.74-3.16,7.89-3.16,5.79,1.05,7.89,3.16,3.16,4.74,3.16,7.89-1.05,5.79-3.16,7.89-4.74,3.16-7.89,3.16Zm82.11,247.37c-7.89,0-14.61-2.76-20.13-8.29-5.53-5.53-8.29-12.24-8.29-20.13s2.76-14.61,8.29-20.13c5.53-5.53,12.24-8.29,20.13-8.29s14.61,2.76,20.13,8.29c5.53,5.53,8.29,12.24,8.29,20.13s-2.76,14.61-8.29,20.13c-5.53,5.53-12.24,8.29-20.13,8.29Zm0-82.11c-7.89,0-14.61-2.76-20.13-8.29s-8.29-12.24-8.29-20.13,2.76-14.61,8.29-20.13,12.24-8.29,20.13-8.29,14.61,2.76,20.13,8.29c5.53,5.53,8.29,12.24,8.29,20.13s-2.76,14.61-8.29,20.13c-5.53,5.53-12.24,8.29-20.13,8.29Zm.06,158.95c-5.65,0-10.41-1.91-14.27-5.73-3.86-3.82-5.79-8.56-5.79-14.21s1.91-10.41,5.73-14.27c3.82-3.86,8.56-5.79,14.21-5.79s10.41,1.91,14.27,5.73c3.86,3.82,5.79,8.56,5.79,14.21s-1.91,10.41-5.73,14.27c-3.82,3.86-8.56,5.79-14.21,5.79Zm0-252.63c-5.65,0-10.41-1.91-14.27-5.73-3.86-3.82-5.79-8.56-5.79-14.21s1.91-10.41,5.73-14.27c3.82-3.86,8.56-5.79,14.21-5.79s10.41,1.91,14.27,5.73c3.86,3.82,5.79,8.56,5.79,14.21s-1.91,10.41-5.73,14.27c-3.82,3.86-8.56,5.79-14.21,5.79Zm-.06-71.58c-3.16,0-5.79-1.05-7.89-3.16-2.11-2.11-3.16-4.74-3.16-7.89s1.05-5.79,3.16-7.89c2.11-2.11,4.74-3.16,7.89-3.16s5.79,1.05,7.89,3.16,3.16,4.74,3.16,7.89-1.05,5.79-3.16,7.89-4.74,3.16-7.89,3.16Zm3.16,377.89c-3.16,0-5.79-1.05-7.89-3.16-2.11-2.11-3.16-4.74-3.16-7.89s1.05-5.79,3.16-7.89c2.11-2.11,4.74-3.16,7.89-3.16s5.79,1.05,7.89,3.16,3.16,4.74,3.16,7.89-1.05,5.79-3.16,7.89-4.74,3.16-7.89,3.16Zm82.16-53.68c-5.65,0-10.41-1.91-14.27-5.73-3.86-3.82-5.79-8.56-5.79-14.21s1.91-10.41,5.73-14.27c3.82-3.86,8.56-5.79,14.21-5.79s10.41,1.91,14.27,5.73c3.86,3.82,5.79,8.56,5.79,14.21s-1.91,10.41-5.73,14.27c-3.82,3.86-8.56,5.79-14.21,5.79Zm0-85.26c-5.65,0-10.41-1.91-14.27-5.73-3.86-3.82-5.79-8.56-5.79-14.21s1.91-10.41,5.73-14.27c3.82-3.86,8.56-5.79,14.21-5.79s10.41,1.91,14.27,5.73c3.86,3.82,5.79,8.56,5.79,14.21s-1.91,10.41-5.73,14.27c-3.82,3.86-8.56,5.79-14.21,5.79Zm0-82.11c-5.65,0-10.41-1.91-14.27-5.73-3.86-3.82-5.79-8.56-5.79-14.21s1.91-10.41,5.73-14.27c3.82-3.86,8.56-5.79,14.21-5.79s10.41,1.91,14.27,5.73c3.86,3.82,5.79,8.56,5.79,14.21s-1.91,10.41-5.73,14.27c-3.82,3.86-8.56,5.79-14.21,5.79Zm0-85.26c-5.65,0-10.41-1.91-14.27-5.73-3.86-3.82-5.79-8.56-5.79-14.21s1.91-10.41,5.73-14.27c3.82-3.86,8.56-5.79,14.21-5.79s10.41,1.91,14.27,5.73c3.86,3.82,5.79,8.56,5.79,14.21s-1.91,10.41-5.73,14.27c-3.82,3.86-8.56,5.79-14.21,5.79Zm62.58,158.42c-3.16,0-5.79-1.05-7.89-3.16s-3.16-4.74-3.16-7.89,1.05-5.79,3.16-7.89c2.11-2.11,4.74-3.16,7.89-3.16s5.79,1.05,7.89,3.16c2.11,2.11,3.16,4.74,3.16,7.89s-1.05,5.79-3.16,7.89-4.74,3.16-7.89,3.16Zm0-82.11c-3.16,0-5.79-1.05-7.89-3.16s-3.16-4.74-3.16-7.89,1.05-5.79,3.16-7.89,4.74-3.16,7.89-3.16,5.79,1.05,7.89,3.16,3.16,4.74,3.16,7.89-1.05,5.79-3.16,7.89-4.74,3.16-7.89,3.16Z"/>
</svg>