<?xml version="1.0" encoding="UTF-8"?>
<svg id="_レイヤー_1" data-name=" レイヤー 1" xmlns="http://www.w3.org/2000/svg" viewBox="0 0 99.73 99.92">
  <defs>
    <style>
      .cls-1 {
        fill: #fff;
      }
    </style>
  </defs>
  <path class="cls-1" d="m3.14,62.71c-.77,0-1.42-.26-1.94-.77s-.77-1.16-.77-1.94.26-1.42.77-1.94,1.16-.77,1.94-.77,1.42.26,1.94.77.77,1.16.77,1.94-.26,1.42-.77,1.94-1.16.77-1.94.77Zm0-20.14c-.77,0-1.42-.26-1.94-.77s-.77-1.16-.77-1.94.26-1.42.77-1.94,1.16-.77,1.94-.77,1.42.26,1.94.77.77,1.16.77,1.94-.26,1.42-.77,1.94-1.16.77-1.94.77Zm15.38,43.25c-1.39,0-2.55-.47-3.5-1.41s-1.42-2.1-1.42-3.49.47-2.55,1.41-3.5,2.1-1.42,3.49-1.42,2.55.47,3.5,1.41,1.42,2.1,1.42,3.49-.47,2.55-1.41,3.5-2.1,1.42-3.49,1.42Zm0-20.92c-1.39,0-2.55-.47-3.5-1.41s-1.42-2.1-1.42-3.49.47-2.55,1.41-3.5,2.1-1.42,3.49-1.42,2.55.47,3.5,1.41,1.42,2.1,1.42,3.49-.47,2.55-1.41,3.5c-.94.95-2.1,1.42-3.49,1.42Zm0-20.14c-1.39,0-2.55-.47-3.5-1.41s-1.42-2.1-1.42-3.49.47-2.55,1.41-3.5,2.1-1.42,3.49-1.42,2.55.47,3.5,1.41,1.42,2.1,1.42,3.49-.47,2.55-1.41,3.5-2.1,1.42-3.49,1.42Zm0-20.92c-1.39,0-2.55-.47-3.5-1.41s-1.42-2.1-1.42-3.49.47-2.55,1.41-3.5c.94-.95,2.1-1.42,3.49-1.42s2.55.47,3.5,1.41c.95.94,1.42,2.1,1.42,3.49s-.47,2.55-1.41,3.5-2.1,1.42-3.49,1.42Zm20.9,43.12c-1.94,0-3.58-.68-4.94-2.03s-2.03-3-2.03-4.94.68-3.58,2.03-4.94,3-2.03,4.94-2.03,3.58.68,4.94,2.03,2.03,3,2.03,4.94-.68,3.58-2.03,4.94-3,2.03-4.94,2.03Zm0-20.14c-1.94,0-3.58-.68-4.94-2.03s-2.03-3-2.03-4.94.68-3.58,2.03-4.94,3-2.03,4.94-2.03,3.58.68,4.94,2.03,2.03,3,2.03,4.94-.68,3.58-2.03,4.94-3,2.03-4.94,2.03Zm0,38.99c-1.39,0-2.55-.47-3.5-1.41s-1.42-2.1-1.42-3.49.47-2.55,1.41-3.5,2.1-1.42,3.49-1.42,2.55.47,3.5,1.41,1.42,2.1,1.42,3.49-.47,2.55-1.41,3.5-2.1,1.42-3.49,1.42Zm0-61.97c-1.39,0-2.55-.47-3.5-1.41s-1.42-2.1-1.42-3.49.47-2.55,1.41-3.5c.94-.95,2.1-1.42,3.49-1.42s2.55.47,3.5,1.41c.95.94,1.42,2.1,1.42,3.49s-.47,2.55-1.41,3.5-2.1,1.42-3.49,1.42Zm0,75.14c-.77,0-1.42-.26-1.94-.77s-.77-1.16-.77-1.94.26-1.42.77-1.94,1.16-.77,1.94-.77,1.42.26,1.94.77.77,1.16.77,1.94-.26,1.42-.77,1.94-1.16.77-1.94.77Zm0-92.7c-.77,0-1.42-.26-1.94-.77s-.77-1.16-.77-1.94.26-1.42.77-1.94,1.16-.77,1.94-.77,1.42.26,1.94.77.77,1.16.77,1.94-.26,1.42-.77,1.94-1.16.77-1.94.77Zm20.14,60.68c-1.94,0-3.58-.68-4.94-2.03s-2.03-3-2.03-4.94.68-3.58,2.03-4.94c1.36-1.36,3-2.03,4.94-2.03s3.58.68,4.94,2.03,2.03,3,2.03,4.94-.68,3.58-2.03,4.94-3,2.03-4.94,2.03Zm0-20.14c-1.94,0-3.58-.68-4.94-2.03s-2.03-3-2.03-4.94.68-3.58,2.03-4.94,3-2.03,4.94-2.03,3.58.68,4.94,2.03,2.03,3,2.03,4.94-.68,3.58-2.03,4.94-3,2.03-4.94,2.03Zm0,38.99c-1.39,0-2.55-.47-3.5-1.41s-1.42-2.1-1.42-3.49.47-2.55,1.41-3.5,2.1-1.42,3.49-1.42,2.55.47,3.5,1.41,1.42,2.1,1.42,3.49-.47,2.55-1.41,3.5-2.1,1.42-3.49,1.42Zm0-61.97c-1.39,0-2.55-.47-3.5-1.41s-1.42-2.1-1.42-3.49.47-2.55,1.41-3.5c.94-.95,2.1-1.42,3.49-1.42s2.55.47,3.5,1.41c.95.94,1.42,2.1,1.42,3.49s-.47,2.55-1.41,3.5-2.1,1.42-3.49,1.42Zm0-17.56c-.77,0-1.42-.26-1.94-.77s-.77-1.16-.77-1.94.26-1.42.77-1.94,1.16-.77,1.94-.77,1.42.26,1.94.77.77,1.16.77,1.94-.26,1.42-.77,1.94-1.16.77-1.94.77Zm.77,92.7c-.77,0-1.42-.26-1.94-.77s-.77-1.16-.77-1.94.26-1.42.77-1.94,1.16-.77,1.94-.77,1.42.26,1.94.77.77,1.16.77,1.94-.26,1.42-.77,1.94-1.16.77-1.94.77Zm20.15-13.17c-1.39,0-2.55-.47-3.5-1.41s-1.42-2.1-1.42-3.49.47-2.55,1.41-3.5,2.1-1.42,3.49-1.42,2.55.47,3.5,1.41,1.42,2.1,1.42,3.49-.47,2.55-1.41,3.5-2.1,1.42-3.49,1.42Zm0-20.92c-1.39,0-2.55-.47-3.5-1.41s-1.42-2.1-1.42-3.49.47-2.55,1.41-3.5,2.1-1.42,3.49-1.42,2.55.47,3.5,1.41,1.42,2.1,1.42,3.49-.47,2.55-1.41,3.5c-.94.95-2.1,1.42-3.49,1.42Zm0-20.14c-1.39,0-2.55-.47-3.5-1.41s-1.42-2.1-1.42-3.49.47-2.55,1.41-3.5,2.1-1.42,3.49-1.42,2.55.47,3.5,1.41,1.42,2.1,1.42,3.49-.47,2.55-1.41,3.5-2.1,1.42-3.49,1.42Zm0-20.92c-1.39,0-2.55-.47-3.5-1.41s-1.42-2.1-1.42-3.49.47-2.55,1.41-3.5c.94-.95,2.1-1.42,3.49-1.42s2.55.47,3.5,1.41c.95.94,1.42,2.1,1.42,3.49s-.47,2.55-1.41,3.5-2.1,1.42-3.49,1.42Zm15.35,38.86c-.77,0-1.42-.26-1.94-.77s-.77-1.16-.77-1.94.26-1.42.77-1.94,1.16-.77,1.94-.77,1.42.26,1.94.77.77,1.16.77,1.94-.26,1.42-.77,1.94-1.16.77-1.94.77Zm0-20.14c-.77,0-1.42-.26-1.94-.77s-.77-1.16-.77-1.94.26-1.42.77-1.94,1.16-.77,1.94-.77,1.42.26,1.94.77.77,1.16.77,1.94-.26,1.42-.77,1.94-1.16.77-1.94.77Z"/>
</svg>