<?xml version="1.0" encoding="UTF-8"?>
<svg id="_レイヤー_3" data-name="レイヤー 3" xmlns="http://www.w3.org/2000/svg" viewBox="0 0 400 400.56">
  <defs>
    <style>
      .cls-1 {
        fill: #ed1643;
      }
    </style>
  </defs>
  <path class="cls-1" d="m133.85,362.16c-8.21,0-15.38-3.08-21.54-9.23-6.15-6.15-9.23-13.33-9.23-21.54v-51.28h63.59v-65.13c-12.99,1.03-25.98-.77-38.97-5.38-12.99-4.62-24.62-11.88-34.87-21.79v-29.74h-25.64L0,90.88c12.31-11.62,27.01-21.11,44.1-28.46,17.09-7.35,34.53-11.03,52.31-11.03,10.26,0,21.97,1.62,35.13,4.87,13.16,3.25,24.87,8.46,35.13,15.64v-37.95h233.33v274.36c0,15.04-5.21,27.78-15.64,38.21s-23.16,15.64-38.21,15.64h-212.31Zm63.59-82.05h125.64v28.21c0,6.84,2.14,12.39,6.41,16.67,4.27,4.27,9.83,6.41,16.67,6.41s12.39-2.14,16.67-6.41c4.27-4.27,6.41-9.83,6.41-16.67V64.73h-171.79v29.23l123.59,123.59v22.05h-22.05l-64.62-64.62-8.72,10.26c-4.44,5.13-8.89,9.06-13.33,11.79-4.44,2.74-9.4,5.3-14.87,7.69v75.38ZM81.03,127.29h42.56v45.64c5.81,3.76,11.54,6.58,17.18,8.46s11.37,2.82,17.18,2.82c8.55,0,17.26-2.31,26.15-6.92s15.38-9.32,19.49-14.1l8.72-10.26-35.38-35.38c-10.94-10.94-23.25-19.57-36.92-25.9-13.68-6.32-28.21-9.49-43.59-9.49-9.23,0-17.61,1.11-25.13,3.33-7.52,2.22-15.21,5.21-23.08,8.97l32.82,32.82Z"/>
</svg>