<?xml version="1.0" encoding="UTF-8"?>
<svg id="_レイヤー_1" data-name="レイヤー 1" xmlns="http://www.w3.org/2000/svg" viewBox="0 0 99.73 99.73">
  <defs>
    <style>
      .cls-1 {
        fill: #ed1643;
      }
    </style>
  </defs>
  <path class="cls-1" d="m33.37,90.3c-2.05,0-3.84-.77-5.37-2.3s-2.3-3.32-2.3-5.37v-12.79h15.85v-16.24c-3.24.26-6.48-.19-9.72-1.34s-6.14-2.96-8.69-5.43v-7.42h-6.39L0,22.66c3.07-2.9,6.73-5.26,11-7.1,4.26-1.83,8.61-2.75,13.04-2.75,2.56,0,5.48.4,8.76,1.21s6.2,2.11,8.76,3.9v-9.46h58.18v68.4c0,3.75-1.3,6.93-3.9,9.53s-5.77,3.9-9.53,3.9h-52.93Zm15.85-20.46h31.33v7.03c0,1.7.53,3.09,1.6,4.16s2.45,1.6,4.16,1.6,3.09-.53,4.16-1.6,1.6-2.45,1.6-4.16V16.14h-42.83v7.29l30.81,30.81v5.5h-5.5l-16.11-16.11-2.17,2.56c-1.11,1.28-2.22,2.26-3.32,2.94s-2.34,1.32-3.71,1.92v18.8ZM20.2,31.74h10.61v11.38c1.45.94,2.88,1.64,4.28,2.11s2.83.7,4.28.7c2.13,0,4.3-.58,6.52-1.73s3.84-2.32,4.86-3.52l2.17-2.56-8.82-8.82c-2.73-2.73-5.8-4.88-9.21-6.46s-7.03-2.37-10.87-2.37c-2.3,0-4.39.28-6.27.83s-3.79,1.3-5.75,2.24l8.18,8.18Z"/>
</svg>